<?xml version="1.0" standalone="no"?>
<!DOCTYPE svg PUBLIC "-//W3C//DTD SVG 20010904//EN"
 "http://www.w3.org/TR/2001/REC-SVG-20010904/DTD/svg10.dtd">
<svg version="1.0" xmlns="http://www.w3.org/2000/svg"
 width="225.000000pt" height="225.000000pt" viewBox="0 0 225.000000 225.000000"
 preserveAspectRatio="xMidYMid meet">
<metadata>
Created by potrace 1.14, written by Peter Selinger 2001-2017
</metadata>
<g transform="translate(0.000000,225.000000) scale(0.100000,-0.100000)"
fill="#000000" stroke="none">
<path d="M1726 1563 c-13 -25 -12 -31 7 -66 18 -32 19 -42 10 -67 -12 -33 0
-41 17 -11 17 33 12 71 -12 91 -21 16 -22 22 -11 49 14 38 8 40 -11 4z"/>
<path d="M1964 1542 c-8 -20 -20 -31 -41 -35 -40 -8 -63 -32 -62 -65 l1 -27 9
26 c7 18 24 32 54 44 32 12 47 24 51 40 9 37 0 49 -12 17z"/>
<path d="M1838 1520 c-16 -14 -28 -32 -28 -39 0 -7 14 1 31 18 38 38 35 56 -3
21z"/>
<path d="M1640 1518 c0 -9 5 -20 10 -23 6 -3 10 -17 10 -31 0 -29 16 -32 23
-4 3 11 2 20 -2 20 -3 0 -14 12 -23 28 -12 19 -18 22 -18 10z"/>
<path d="M1500 1481 c0 -5 5 -13 10 -16 6 -3 10 -2 10 4 0 5 -4 13 -10 16 -5
3 -10 2 -10 -4z"/>
<path d="M1530 1470 c0 -5 6 -10 14 -10 7 0 25 -10 40 -21 26 -20 27 -20 24
-3 -4 27 -78 58 -78 34z"/>
<path d="M1320 1415 c-10 -12 -10 -21 -1 -42 10 -21 9 -30 -4 -50 -24 -36 -7
-43 20 -9 23 28 23 29 4 49 -22 24 -24 38 -7 55 7 7 9 12 6 12 -3 0 -11 -7
-18 -15z"/>
<path d="M1535 1380 c-17 -7 -16 -9 10 -10 17 -1 41 -1 55 -1 37 3 91 -38 106
-79 l12 -35 1 33 c1 43 -13 68 -49 87 -31 16 -103 19 -135 5z"/>
<path d="M1946 1359 c-31 -24 -29 -37 3 -18 16 11 27 11 55 1 30 -11 40 -11
66 3 16 8 30 20 30 26 0 6 -7 3 -16 -5 -19 -20 -54 -20 -80 -1 -25 19 -27 19
-58 -6z"/>
<path d="M1862 1348 c-13 -13 -17 -15 -51 -17 -27 -1 -51 -28 -50 -54 0 -21 1
-21 10 3 12 29 26 40 55 40 11 0 29 9 39 20 20 22 17 28 -3 8z"/>
<path d="M1209 1325 c-7 -24 6 -65 21 -65 5 0 10 5 10 10 0 6 -4 10 -9 10 -6
0 -11 15 -13 33 -2 25 -4 28 -9 12z"/>
<path d="M1585 1300 c-4 -7 -3 -16 3 -22 14 -14 45 -2 40 15 -6 16 -34 21 -43
7z"/>
<path d="M1664 1259 c-10 -17 13 -36 27 -22 12 12 4 33 -11 33 -5 0 -12 -5
-16 -11z"/>
<path d="M1454 1249 c-9 -16 12 -33 31 -25 14 5 15 9 5 21 -15 18 -26 19 -36
4z"/>
<path d="M1942 1233 c-10 -19 -9 -20 9 -16 12 4 29 -2 42 -15 17 -15 28 -18
45 -11 29 11 28 17 -1 12 -14 -3 -29 2 -36 11 -8 9 -19 16 -26 16 -8 0 -15 6
-17 12 -3 8 -9 5 -16 -9z"/>
<path d="M1067 1223 c12 -2 25 -13 28 -24 4 -11 9 -18 12 -16 3 3 2 15 -2 26
-4 15 -14 21 -33 20 -23 -2 -24 -2 -5 -6z"/>
<path d="M1621 1207 c-14 -17 3 -41 23 -34 9 4 16 13 16 21 0 19 -26 28 -39
13z"/>
<path d="M1530 1195 c0 -8 7 -15 15 -15 8 0 15 7 15 15 0 8 -7 15 -15 15 -8 0
-15 -7 -15 -15z"/>
<path d="M1665 1158 l-40 -43 43 40 c39 36 47 45 39 45 -2 0 -21 -19 -42 -42z"/>
<path d="M1748 1179 c-10 -5 -18 -17 -18 -26 0 -15 2 -15 18 0 23 21 41 21 63
1 25 -22 65 -21 92 3 12 11 29 23 37 26 10 3 6 6 -8 6 -13 1 -37 -7 -53 -16
-27 -16 -31 -16 -58 0 -33 19 -49 21 -73 6z"/>
<path d="M1310 1165 c-7 -8 -10 -22 -6 -31 4 -11 1 -14 -13 -9 -14 4 -20 -1
-25 -20 -4 -14 -4 -30 -1 -34 3 -5 -2 -11 -10 -15 -9 -3 -15 0 -15 9 0 8 -4
15 -10 15 -5 0 -7 -7 -4 -15 4 -9 -2 -18 -17 -24 l-24 -10 24 0 c20 -1 21 -3
11 -16 -7 -9 -8 -15 -2 -15 5 0 12 6 15 14 3 8 16 20 28 26 15 8 19 9 15 1 -5
-7 4 -11 23 -11 21 0 35 7 46 24 11 16 22 22 39 19 13 -3 30 2 40 12 19 20 18
66 -2 73 -11 3 -11 1 0 -17 10 -16 10 -26 2 -39 -18 -28 -44 -26 -79 8 -34 33
-36 55 -7 63 15 4 15 5 1 6 -9 0 -22 -6 -29 -14z m28 -75 c2 -11 -6 -16 -27
-18 -33 -2 -51 15 -30 29 20 13 53 6 57 -11z"/>
<path d="M1461 1146 c-9 -10 -8 -16 3 -25 10 -9 16 -8 25 3 9 10 8 16 -3 25
-10 9 -16 8 -25 -3z"/>
<path d="M1835 1088 l-40 -43 43 40 c39 36 47 45 39 45 -2 0 -21 -19 -42 -42z"/>
<path d="M1593 1093 c-3 -8 -17 -20 -32 -28 l-26 -14 24 -1 c13 0 39 10 58 21
24 15 43 20 66 15 30 -5 31 -5 12 9 -24 19 -95 17 -102 -2z"/>
<path d="M1170 1085 c-7 -9 -10 -18 -6 -22 3 -3 6 -1 6 5 0 5 12 15 28 20 23
9 24 11 6 11 -12 1 -27 -6 -34 -14z"/>
<path d="M191 1071 c-15 -15 -21 -33 -21 -63 0 -32 3 -39 10 -28 5 8 10 23 10
32 0 26 40 48 89 48 58 0 42 20 -22 27 -36 4 -49 1 -66 -16z"/>
<path d="M871 1041 c12 -34 27 -48 38 -35 4 5 -6 22 -21 38 l-28 28 11 -31z"/>
<path d="M1715 1039 c-5 -8 -1 -9 14 -4 24 7 27 -4 9 -25 -11 -12 -10 -12 5
-1 15 12 20 11 35 -3 23 -20 46 -21 62 -1 7 8 24 16 39 16 19 1 21 3 7 6 -10
3 -29 0 -41 -7 -28 -15 -60 -9 -59 11 1 18 -61 26 -71 8z"/>
<path d="M1054 1029 c-9 -15 11 -33 30 -26 9 4 13 13 10 22 -7 17 -30 20 -40
4z"/>
<path d="M928 983 c-26 -30 -39 -63 -33 -82 10 -33 49 -60 95 -65 41 -5 42 -5
10 3 -62 17 -93 77 -66 130 19 35 16 39 -6 14z"/>
<path d="M1699 983 c-13 -16 -12 -17 4 -4 16 13 21 21 13 21 -2 0 -10 -8 -17
-17z"/>
<path d="M1007 974 c-14 -15 -6 -34 14 -34 14 0 19 5 17 17 -3 18 -20 27 -31
17z"/>
<path d="M1575 960 c-3 -6 5 -10 19 -10 21 0 26 -6 32 -36 7 -40 24 -51 51
-35 17 10 16 10 -3 11 -22 0 -34 17 -34 50 0 26 -51 42 -65 20z"/>
<path d="M1100 945 c-20 -24 4 -45 26 -24 13 14 13 17 1 27 -11 10 -17 9 -27
-3z"/>
<path d="M824 919 c-3 -6 -15 -8 -27 -5 -12 3 -16 1 -10 -5 11 -11 73 -1 73
12 0 13 -28 11 -36 -2z"/>
<path d="M1479 916 c8 -10 9 -26 2 -56 -5 -23 -7 -39 -4 -36 3 3 15 -1 26 -9
12 -8 31 -12 44 -9 13 4 31 0 41 -7 15 -13 16 -12 4 3 -8 9 -28 18 -45 20 -29
3 -32 6 -35 43 -4 40 -16 65 -34 65 -6 0 -6 -6 1 -14z"/>
<path d="M721 846 c-22 -12 -16 -14 67 -20 60 -5 98 -4 111 4 33 17 26 33 -11
24 -40 -9 -62 -10 -108 -1 -23 5 -43 2 -59 -7z"/>
<path d="M1304 815 c-10 -26 5 -65 25 -65 11 0 28 -3 38 -6 16 -5 16 -4 -2 10
-41 32 -46 38 -40 57 7 22 -13 26 -21 4z"/>
<path d="M948 795 c-7 -8 -105 -32 -160 -39 -70 -10 -112 -43 -116 -90 -4 -42
15 -76 29 -54 5 7 9 25 9 40 0 18 8 33 24 43 28 19 163 48 189 41 11 -2 16 -2
13 1 -3 3 6 14 19 25 14 11 25 24 25 29 0 10 -23 13 -32 4z"/>
<path d="M1230 784 c0 -4 7 -12 15 -18 13 -9 14 -17 4 -44 -10 -30 -9 -35 15
-57 28 -26 36 -22 10 6 -12 13 -13 22 -5 38 15 27 14 47 -5 65 -16 16 -34 21
-34 10z"/>
<path d="M1058 728 c-2 -17 -9 -23 -28 -22 -14 1 -17 -1 -7 -3 15 -4 16 -7 6
-19 -14 -17 2 -64 22 -64 8 0 8 4 -1 15 -14 17 -5 51 15 59 16 6 21 56 6 56
-5 0 -11 -10 -13 -22z"/>
<path d="M370 565 c-7 -9 -13 -29 -12 -46 1 -38 12 -52 12 -16 0 37 33 43 148
29 56 -7 100 -9 109 -3 14 8 14 9 -3 15 -24 7 -203 36 -225 36 -9 0 -22 -7
-29 -15z"/>
</g>
</svg>
